<?xml version="1.0" standalone="no"?>
<!DOCTYPE svg PUBLIC "-//W3C//DTD SVG 20010904//EN"
 "http://www.w3.org/TR/2001/REC-SVG-20010904/DTD/svg10.dtd">
<svg version="1.0" xmlns="http://www.w3.org/2000/svg"
 width="512.000000pt" height="512.000000pt" viewBox="0 0 512.000000 512.000000"
 preserveAspectRatio="xMidYMid meet">

<g transform="translate(0.000000,512.000000) scale(0.100000,-0.100000)"
fill="#004a98" stroke="none">
<path d="M895 5108 c-27 -5 -87 -27 -133 -48 -108 -51 -222 -161 -270 -260
-66 -137 -62 24 -62 -2240 0 -2264 -4 -2103 62 -2240 48 -99 162 -209 269
-259 46 -22 111 -44 143 -50 41 -8 553 -11 1660 -11 1770 0 1670 -3 1807 66
97 48 211 162 257 254 66 136 62 -26 62 2240 0 2265 4 2104 -62 2240 -45 91
-169 213 -262 258 -133 65 -42 62 -1811 61 -972 -1 -1630 -5 -1660 -11z m780
-3017 c264 -129 325 -463 124 -676 -86 -91 -196 -135 -339 -135 l-70 0 0 -137
c0 -76 -5 -154 -10 -175 -14 -49 -76 -104 -129 -113 -53 -9 -126 25 -159 74
l-22 35 2 535 c3 535 3 536 25 567 43 60 65 65 298 62 l210 -3 70 -34z m1096
7 c107 -53 186 -158 209 -277 14 -73 13 -596 -1 -663 -32 -152 -144 -264 -297
-297 -65 -14 -384 -15 -432 -1 -45 12 -97 65 -110 111 -6 20 -10 235 -10 529
0 494 0 496 23 540 12 25 38 55 57 68 34 23 38 23 270 20 233 -3 235 -3 291
-30z m1195 16 c50 -24 77 -68 82 -133 3 -46 0 -62 -20 -90 -46 -69 -70 -75
-291 -81 -161 -4 -200 -8 -207 -20 -5 -8 -10 -54 -10 -102 l0 -87 214 -3 c199
-3 217 -4 243 -24 98 -73 98 -195 0 -268 -26 -20 -44 -21 -243 -24 l-214 -3 0
-150 c0 -129 -3 -155 -20 -188 -57 -113 -223 -113 -280 0 -19 36 -20 60 -20
453 0 385 1 418 20 477 35 112 131 210 239 243 71 22 461 22 507 0z"/>
<path d="M1390 1704 l0 -106 74 4 c62 3 79 7 100 27 35 33 44 85 21 126 -22
43 -52 55 -130 55 l-65 0 0 -106z"/>
<path d="M2452 1493 l3 -318 87 -3 c135 -4 128 -22 128 316 0 342 8 322 -126
322 l-94 0 2 -317z"/>
</g>
</svg>
