<?xml version="1.0" standalone="no"?>
<!DOCTYPE svg PUBLIC "-//W3C//DTD SVG 20010904//EN"
 "http://www.w3.org/TR/2001/REC-SVG-20010904/DTD/svg10.dtd">
<svg version="1.0" xmlns="http://www.w3.org/2000/svg"
 width="512.000000pt" height="512.000000pt" viewBox="0 0 512.000000 512.000000"
 preserveAspectRatio="xMidYMid meet">

<g transform="translate(0.000000,512.000000) scale(0.100000,-0.100000)"
fill="#004a98" stroke="none">
<path d="M1800 4363 c-604 -14 -1088 -54 -1255 -104 -224 -66 -397 -258 -441
-487 -26 -138 -63 -416 -81 -612 -24 -273 -24 -903 1 -1185 35 -404 79 -671
125 -768 81 -170 221 -293 393 -346 129 -39 422 -69 918 -93 356 -17 1852 -17
2200 0 435 22 713 46 862 77 202 42 387 196 465 387 37 93 82 388 115 763 20
223 16 946 -5 1185 -26 285 -75 614 -102 686 -77 203 -264 366 -470 409 -187
38 -582 68 -1125 85 -282 9 -1290 11 -1600 3z m908 -1409 c356 -207 653 -382
660 -388 9 -9 -117 -87 -580 -356 -326 -189 -626 -363 -665 -387 l-73 -43 0
775 c0 426 3 775 6 775 3 0 296 -169 652 -376z"/>
</g>
</svg>
