<?xml version="1.0" standalone="no"?>
<!DOCTYPE svg PUBLIC "-//W3C//DTD SVG 20010904//EN"
 "http://www.w3.org/TR/2001/REC-SVG-20010904/DTD/svg10.dtd">
<svg version="1.0" xmlns="http://www.w3.org/2000/svg"
 width="512.000000pt" height="512.000000pt" viewBox="0 0 512.000000 512.000000"
 preserveAspectRatio="xMidYMid meet">

<g transform="translate(0.000000,512.000000) scale(0.100000,-0.100000)"
fill="#004a98" stroke="none">
<path d="M3676 5109 c-150 -20 -308 -71 -435 -140 -162 -87 -226 -143 -648
-563 -361 -360 -413 -416 -419 -448 -7 -44 18 -96 57 -115 15 -8 67 -13 137
-13 130 0 217 -11 353 -46 77 -20 102 -22 125 -14 16 6 155 136 309 289 154
153 294 288 312 300 111 75 230 111 373 111 149 0 262 -35 384 -119 68 -47
143 -138 187 -226 92 -186 91 -384 -2 -575 -41 -83 -52 -95 -432 -477 -215
-216 -394 -390 -398 -387 -4 2 -11 18 -14 36 -12 55 -75 201 -117 273 -221
377 -602 603 -1048 621 -353 15 -663 -100 -941 -350 -52 -46 -333 -324 -625
-617 -378 -381 -547 -558 -587 -616 -169 -242 -241 -467 -241 -753 0 -228 40
-398 140 -588 186 -354 493 -583 895 -669 116 -24 362 -24 479 0 191 41 350
110 513 224 57 39 207 182 494 467 449 448 445 444 409 515 -26 50 -60 61
-186 61 -128 0 -215 11 -351 46 -77 20 -102 22 -125 14 -16 -6 -155 -136 -309
-289 -154 -153 -294 -288 -312 -300 -111 -75 -230 -111 -373 -111 -186 0 -327
56 -451 180 -198 198 -244 485 -117 740 40 82 54 97 432 477 214 216 393 390
397 387 4 -2 11 -18 14 -36 12 -55 75 -201 117 -273 97 -165 239 -315 402
-422 124 -82 273 -142 447 -179 117 -26 390 -26 507 -1 240 53 439 157 634
331 51 46 334 326 628 622 466 469 544 552 602 639 112 170 163 291 205 486
24 116 24 362 0 479 -111 525 -493 908 -1012 1015 -96 20 -314 28 -409 14z
m-1123 -2158 c185 -65 322 -201 393 -387 32 -85 44 -250 24 -342 l-12 -59 -50
-12 c-70 -16 -223 -14 -293 4 -202 51 -364 199 -441 401 -32 85 -44 250 -24
343 12 57 13 59 54 69 69 18 281 8 349 -17z"/>
</g>
</svg>
