<?xml version="1.0" encoding="utf-8"?>
<!-- Generator: Adobe Illustrator 23.0.1, SVG Export Plug-In . SVG Version: 6.00 Build 0)  -->
<svg version="1.1" id="Layer_1" xmlns="http://www.w3.org/2000/svg" xmlns:xlink="http://www.w3.org/1999/xlink" x="0px" y="0px"
	 viewBox="0 0 27 19.5" style="enable-background:new 0 0 27 19.5;" xml:space="preserve">
<style type="text/css">
	.st0{fill-rule:evenodd;clip-rule:evenodd;fill:#000833;}
</style>
<path id="email" class="st0" d="M12.7,11.6c0.5,0.4,1.2,0.4,1.6,0c1.9-1.7,8.4-7,12.1-10c0.2-0.2,0.3-0.5,0.1-0.7
	C26.1,0.3,25.4,0,24.8,0H2.2C1.6,0,0.9,0.3,0.5,0.8C0.3,1.1,0.3,1.4,0.6,1.6C4.3,4.6,10.8,9.9,12.7,11.6z M26.7,3.2
	c-0.2-0.1-0.4-0.1-0.6,0.1c-4.1,3.4-9.4,7.7-11,9.1c-0.9,0.8-2.2,0.8-3.1,0c-1.8-1.5-7.6-6.3-11-9.1C0.8,3.2,0.5,3.1,0.3,3.2
	C0.1,3.3,0,3.5,0,3.7v13.6c0,1.2,1,2.2,2.2,2.2h22.5c1.2,0,2.2-0.9,2.2-2.2V3.7C27,3.5,26.9,3.3,26.7,3.2L26.7,3.2z"/>
</svg>
