<?xml version="1.0" encoding="utf-8"?>
<!-- Generator: Adobe Illustrator 23.0.1, SVG Export Plug-In . SVG Version: 6.00 Build 0)  -->
<svg version="1.1" id="Layer_1" xmlns="http://www.w3.org/2000/svg" xmlns:xlink="http://www.w3.org/1999/xlink" x="0px" y="0px"
	 viewBox="0 0 25.3 25.3" style="enable-background:new 0 0 25.3 25.3;" xml:space="preserve">
<style type="text/css">
	.st0{fill-rule:evenodd;clip-rule:evenodd;fill:#000833;}
</style>
<path id="telefon" class="st0" d="M7.1,3.4l1.6,2.4C9,6.3,8.9,6.9,8.5,7.3l-2,1.5c-0.4,0.3-0.6,0.9-0.3,1.4c2.1,3.7,5.2,6.7,8.9,8.9
	c0.5,0.3,1.1,0.1,1.4-0.3l1.5-2c0.4-0.5,1-0.6,1.5-0.2l2.5,1.7l2.8,1.9c0.5,0.3,0.6,1,0.3,1.5l-1.3,2.2c-0.4,0.6-0.9,1-1.6,1.2
	C20,25.7,15.2,25.8,7.3,18S-0.3,5.3,0.3,3.1c0.2-0.7,0.6-1.2,1.2-1.6l2.2-1.3C4.2-0.1,4.9,0,5.2,0.5L7.1,3.4z"/>
</svg>
